<svg width="312" height="169" viewBox="0 0 312 169" fill="none" xmlns="http://www.w3.org/2000/svg">
<path d="M45.0252 146.576H265.312V133.264C265.312 130.483 261.97 127.747 256.143 125.755L256.083 125.735C252.148 124.343 226.997 114.44 213.392 114.74C206.206 114.898 200.053 116.119 195.105 118.369C179.705 125.378 159.475 127.966 148.786 125.933C139.367 124.14 113.508 121.175 103.954 121.309C90.5724 121.493 90.5331 123.734 76.7974 130.967C71.5513 133.727 69.5892 134.074 45.0252 136.276V146.576Z" fill="#F2F2F2"/>
<path d="M9.51149 127.009C9.03181 119.867 12.0563 112.652 18.3234 110.001C17.0565 117.36 18.6174 125.536 22.6423 132.625C24.2099 135.386 26.2231 138.334 25.7946 141.219C25.5281 143.014 24.3099 144.439 22.8214 145.367C21.3328 146.295 19.5788 146.79 17.8461 147.276L17.547 147.591C13.4291 141.198 9.99118 134.151 9.51149 127.009Z" fill="#F2F2F2"/>
<path d="M18.4156 110.132C15.3076 114.929 13.9267 120.646 14.5016 126.337C14.5967 127.636 14.8871 128.914 15.363 130.127C15.8835 131.342 16.6818 132.418 17.6934 133.267C18.6297 134.084 19.6685 134.825 20.4183 135.828C20.7883 136.318 21.0561 136.877 21.2055 137.473C21.355 138.069 21.383 138.688 21.2881 139.295C21.0695 140.733 20.3271 141.933 19.5559 143.077C18.6997 144.346 17.7881 145.648 17.6327 147.28C17.6139 147.478 17.2985 147.394 17.3172 147.197C17.5875 144.356 19.9774 142.629 20.7806 140.041C20.9991 139.416 21.0736 138.75 20.9985 138.092C20.9235 137.434 20.7009 136.801 20.3474 136.242C19.6488 135.181 18.5781 134.416 17.6239 133.595C16.6249 132.777 15.8123 131.754 15.2409 130.595C14.707 129.402 14.3687 128.131 14.239 126.831C13.915 124.026 14.0477 121.188 14.6321 118.426C15.2572 115.387 16.4559 112.495 18.1638 109.906C18.2685 109.749 18.5196 109.975 18.4156 110.132V110.132Z" fill="white"/>
<path d="M14.2217 124.425C13.1908 124.222 12.2484 123.703 11.5257 122.939C10.803 122.174 10.3359 121.203 10.1894 120.16C10.1667 119.957 10.4817 119.957 10.5044 120.16C10.6392 121.131 11.0743 122.036 11.7484 122.746C12.4225 123.456 13.3017 123.937 14.2625 124.12C14.2827 124.123 14.3022 124.129 14.3199 124.139C14.3375 124.149 14.353 124.163 14.3655 124.179C14.3779 124.195 14.387 124.213 14.3923 124.233C14.3976 124.253 14.3989 124.273 14.3962 124.293C14.3935 124.314 14.3868 124.333 14.3765 124.351C14.3663 124.368 14.3526 124.383 14.3364 124.396C14.3202 124.408 14.3017 124.417 14.282 124.422C14.2623 124.427 14.2418 124.428 14.2217 124.425Z" fill="white"/>
<path d="M17.1719 132.907C17.9411 132.332 18.5803 131.601 19.0472 130.761C19.5142 129.921 19.7984 128.991 19.8811 128.033C19.9006 127.835 20.2161 127.919 20.1966 128.117C20.1085 129.113 19.8107 130.08 19.3228 130.953C18.835 131.826 18.168 132.586 17.3661 133.182C17.2126 133.294 17.0193 133.019 17.1719 132.907Z" fill="white"/>
<path d="M15.6246 115.621C15.9842 115.776 16.3773 115.836 16.7666 115.796C17.1559 115.755 17.5285 115.616 17.849 115.391C18.0007 115.277 18.1939 115.552 18.0433 115.666C17.6881 115.913 17.2765 116.066 16.8467 116.111C16.4168 116.156 15.9825 116.092 15.5838 115.925C15.5425 115.913 15.5064 115.887 15.4814 115.852C15.4565 115.817 15.4442 115.774 15.4465 115.731C15.4494 115.711 15.4566 115.692 15.4676 115.676C15.4785 115.659 15.493 115.645 15.51 115.634C15.527 115.624 15.546 115.617 15.5658 115.615C15.5856 115.612 15.6057 115.614 15.6247 115.621H15.6246Z" fill="white"/>
<path d="M41.1889 121.638C41.0966 121.712 41.0044 121.787 40.9125 121.864C39.6805 122.872 38.5451 123.992 37.5212 125.212C37.4403 125.304 37.36 125.4 37.2824 125.495C34.8327 128.5 33.0396 131.988 32.019 135.731C31.6005 137.258 31.3067 138.816 31.1406 140.391C30.9074 142.587 30.8349 145.011 29.8938 146.845C29.7984 147.037 29.6896 147.222 29.5682 147.399L18.0127 147.987C17.984 147.975 17.9555 147.965 17.9266 147.953L17.4693 147.998C17.4721 147.915 17.4768 147.829 17.4796 147.745C17.481 147.697 17.485 147.648 17.4865 147.6C17.4882 147.567 17.4901 147.535 17.4898 147.506C17.4904 147.495 17.491 147.484 17.4921 147.476C17.4918 147.446 17.4947 147.419 17.4949 147.392C17.52 146.91 17.5477 146.428 17.5808 145.946C17.5803 145.943 17.5803 145.943 17.5823 145.94C17.7809 142.312 18.438 138.724 19.5378 135.262C19.5718 135.161 19.6051 135.058 19.6444 134.956C20.1573 133.456 20.8064 132.006 21.5836 130.624C22.0082 129.876 22.4756 129.154 22.9835 128.46C24.2986 126.674 25.9251 125.14 27.7846 123.934C29.6825 122.667 31.8187 121.802 34.0622 121.391C36.3056 120.981 38.609 121.035 40.8311 121.548C40.951 121.577 41.0685 121.606 41.1889 121.638Z" fill="#F2F2F2"/>
<path d="M41.1911 121.787C35.7746 123.152 31.0252 126.417 27.8039 130.991C27.0967 131.965 26.5677 133.057 26.2416 134.216C25.9574 135.421 26.0038 136.681 26.3759 137.862C26.7019 139.01 27.1653 140.166 27.2127 141.334C27.2387 141.906 27.1294 142.476 26.8936 142.997C26.6579 143.518 26.3025 143.976 25.8564 144.333C24.7822 145.227 23.3907 145.636 22.0092 145.987C20.4752 146.376 18.8722 146.756 17.7344 147.827C17.5965 147.957 17.3694 147.707 17.5071 147.577C19.4866 145.713 22.6559 145.922 24.9508 144.56C26.0216 143.924 26.8586 142.935 26.8967 141.587C26.93 140.408 26.453 139.216 26.1131 138.055C25.7345 136.902 25.6432 135.673 25.8473 134.476C26.1084 133.299 26.591 132.182 27.2691 131.185C28.74 128.948 30.6026 126.996 32.7668 125.424C35.2719 123.589 38.1023 122.248 41.1072 121.474C41.2964 121.425 41.3791 121.738 41.1912 121.787H41.1911Z" fill="white"/>
<path d="M28.7283 129.458C27.1225 127.935 26.7207 125.591 27.7802 123.982C27.8846 123.823 28.1631 124.013 28.0586 124.172C27.066 125.679 27.4498 127.842 28.9508 129.265C29.1088 129.415 28.8853 129.607 28.7283 129.458Z" fill="white"/>
<path d="M26.1356 137.291C27.1102 137.365 28.0896 137.24 29.0144 136.923C29.9392 136.606 30.7901 136.103 31.5154 135.447C31.6538 135.317 31.8809 135.568 31.7427 135.697C30.9863 136.379 30.0995 136.899 29.1362 137.227C28.1729 137.555 27.1532 137.683 26.139 137.604C25.9345 137.592 25.9323 137.279 26.1356 137.291Z" fill="white"/>
<path d="M35.3627 124.021C35.6056 124.36 35.9202 124.642 36.2841 124.845C36.6479 125.049 37.0521 125.169 37.4678 125.199C37.672 125.208 37.674 125.521 37.4712 125.512C37.012 125.478 36.5656 125.344 36.1631 125.12C35.7606 124.895 35.4116 124.586 35.1402 124.213C35.1112 124.184 35.0948 124.144 35.0944 124.103C35.094 124.062 35.1095 124.022 35.1378 123.992C35.1718 123.967 35.2141 123.956 35.2559 123.961C35.2977 123.967 35.3359 123.988 35.3627 124.021Z" fill="white"/>
<path d="M298.821 127.009C299.301 119.867 296.277 112.652 290.01 110.001C291.276 117.36 289.715 125.536 285.691 132.625C284.123 135.386 282.11 138.334 282.538 141.219C282.805 143.014 284.023 144.439 285.511 145.367C287 146.295 288.754 146.79 290.487 147.276L290.786 147.591C294.904 141.198 298.342 134.151 298.821 127.009Z" fill="#F2F2F2"/>
<path d="M289.917 110.132C293.025 114.929 294.406 120.646 293.831 126.337C293.736 127.636 293.446 128.914 292.97 130.127C292.449 131.342 291.651 132.418 290.64 133.267C289.703 134.084 288.664 134.825 287.915 135.828C287.545 136.318 287.277 136.877 287.127 137.473C286.978 138.069 286.95 138.688 287.045 139.295C287.263 140.733 288.006 141.933 288.777 143.077C289.633 144.346 290.545 145.648 290.7 147.28C290.719 147.478 291.034 147.394 291.016 147.197C290.745 144.356 288.356 142.629 287.552 140.041C287.334 139.416 287.259 138.75 287.334 138.092C287.409 137.434 287.632 136.801 287.985 136.242C288.684 135.181 289.755 134.416 290.709 133.595C291.708 132.777 292.521 131.754 293.092 130.595C293.626 129.402 293.964 128.131 294.094 126.831C294.418 124.026 294.285 121.188 293.701 118.426C293.076 115.387 291.877 112.495 290.169 109.906C290.064 109.749 289.813 109.975 289.917 110.132V110.132Z" fill="white"/>
<path d="M294.111 124.425C295.142 124.222 296.084 123.703 296.807 122.939C297.53 122.174 297.997 121.203 298.144 120.16C298.166 119.957 297.851 119.957 297.828 120.16C297.694 121.131 297.259 122.036 296.585 122.746C295.91 123.456 295.031 123.937 294.07 124.12C294.05 124.123 294.031 124.129 294.013 124.139C293.995 124.149 293.98 124.163 293.967 124.179C293.955 124.195 293.946 124.213 293.941 124.233C293.935 124.253 293.934 124.273 293.937 124.293C293.939 124.314 293.946 124.333 293.956 124.351C293.967 124.368 293.98 124.383 293.996 124.396C294.013 124.408 294.031 124.417 294.051 124.422C294.071 124.427 294.091 124.428 294.111 124.425Z" fill="white"/>
<path d="M291.161 132.907C290.392 132.332 289.753 131.601 289.286 130.761C288.819 129.921 288.535 128.991 288.452 128.033C288.432 127.835 288.117 127.919 288.136 128.117C288.224 129.113 288.522 130.08 289.01 130.953C289.498 131.826 290.165 132.586 290.967 133.182C291.12 133.294 291.314 133.019 291.161 132.907Z" fill="white"/>
<path d="M292.708 115.621C292.349 115.776 291.956 115.836 291.566 115.796C291.177 115.755 290.804 115.616 290.484 115.391C290.332 115.277 290.139 115.552 290.29 115.666C290.645 115.913 291.056 116.066 291.486 116.111C291.916 116.156 292.35 116.092 292.749 115.925C292.79 115.913 292.827 115.887 292.851 115.852C292.876 115.817 292.889 115.774 292.886 115.731C292.883 115.711 292.876 115.692 292.865 115.676C292.854 115.659 292.84 115.645 292.823 115.634C292.806 115.624 292.787 115.617 292.767 115.615C292.747 115.612 292.727 115.614 292.708 115.621H292.708Z" fill="white"/>
<path d="M267.144 121.638C267.236 121.712 267.329 121.787 267.42 121.864C268.652 122.871 269.788 123.992 270.812 125.212C270.893 125.304 270.973 125.4 271.051 125.495C273.5 128.5 275.293 131.988 276.314 135.731C276.732 137.258 277.026 138.816 277.192 140.391C277.426 142.587 277.498 145.011 278.439 146.845C278.534 147.037 278.643 147.222 278.765 147.399L290.32 147.987C290.349 147.975 290.377 147.965 290.406 147.953L290.864 147.998C290.861 147.915 290.856 147.829 290.853 147.745C290.852 147.697 290.848 147.648 290.846 147.6C290.845 147.567 290.843 147.535 290.843 147.506C290.843 147.495 290.842 147.484 290.841 147.476C290.841 147.446 290.838 147.419 290.838 147.392C290.813 146.91 290.785 146.428 290.752 145.946C290.753 145.943 290.753 145.943 290.751 145.94C290.552 142.312 289.895 138.724 288.795 135.262C288.761 135.161 288.728 135.058 288.688 134.956C288.176 133.456 287.526 132.006 286.749 130.624C286.325 129.876 285.857 129.154 285.349 128.46C284.034 126.674 282.408 125.14 280.548 123.934C278.65 122.667 276.514 121.802 274.271 121.391C272.027 120.981 269.724 121.035 267.502 121.548C267.382 121.577 267.264 121.606 267.144 121.638Z" fill="#F2F2F2"/>
<path d="M267.142 121.787C272.558 123.152 277.308 126.417 280.529 130.991C281.236 131.965 281.765 133.057 282.091 134.216C282.375 135.421 282.329 136.681 281.957 137.862C281.631 139.01 281.168 140.166 281.12 141.334C281.094 141.906 281.204 142.476 281.439 142.997C281.675 143.518 282.03 143.976 282.477 144.333C283.551 145.227 284.942 145.636 286.324 145.987C287.858 146.376 289.461 146.756 290.599 147.827C290.736 147.957 290.963 147.707 290.826 147.577C288.846 145.713 285.677 145.922 283.382 144.56C282.311 143.924 281.474 142.935 281.436 141.587C281.403 140.408 281.88 139.216 282.22 138.055C282.598 136.902 282.69 135.673 282.486 134.476C282.225 133.299 281.742 132.182 281.064 131.185C279.593 128.948 277.73 126.996 275.566 125.424C273.061 123.589 270.231 122.248 267.226 121.474C267.037 121.425 266.954 121.738 267.142 121.787Z" fill="white"/>
<path d="M279.605 129.458C281.21 127.935 281.612 125.591 280.553 123.982C280.448 123.823 280.17 124.013 280.274 124.172C281.267 125.679 280.883 127.842 279.382 129.265C279.224 129.415 279.448 129.607 279.605 129.458Z" fill="white"/>
<path d="M282.197 137.291C281.223 137.365 280.243 137.24 279.318 136.923C278.394 136.606 277.543 136.103 276.817 135.447C276.679 135.317 276.452 135.568 276.59 135.697C277.347 136.379 278.233 136.899 279.197 137.227C280.16 137.555 281.18 137.683 282.194 137.604C282.398 137.592 282.401 137.279 282.197 137.291Z" fill="white"/>
<path d="M272.97 124.021C272.727 124.36 272.413 124.642 272.049 124.845C271.685 125.049 271.281 125.169 270.865 125.199C270.661 125.208 270.659 125.521 270.862 125.512C271.321 125.478 271.767 125.344 272.17 125.12C272.572 124.895 272.921 124.586 273.193 124.213C273.222 124.184 273.238 124.144 273.238 124.103C273.239 124.062 273.223 124.022 273.195 123.992C273.161 123.967 273.119 123.956 273.077 123.961C273.035 123.967 272.997 123.988 272.97 124.021Z" fill="white"/>
<path d="M19.7564 91.6517H17.6382V92.3595H19.7564V91.6517Z" fill="#E6E6E6"/>
<path d="M286.337 92.3595H282.038V91.6517H286.337V92.3595ZM277.738 92.3595H273.438V91.6517H277.738V92.3595ZM269.138 92.3595H264.839V91.6517H269.138V92.3595ZM260.539 92.3595H256.239V91.6517H260.539V92.3595ZM251.94 92.3595H247.64V91.6517H251.94V92.3595ZM243.34 92.3595H239.041V91.6517H243.34V92.3595ZM234.741 92.3595H230.441V91.6517H234.741V92.3595ZM226.142 92.3595H221.842V91.6517H226.142L226.142 92.3595ZM217.542 92.3595H213.243V91.6517H217.542V92.3595ZM208.943 92.3595H204.643V91.6517H208.943V92.3595ZM200.344 92.3595H196.044V91.6517H200.344V92.3595ZM191.744 92.3595H187.445V91.6517H191.744V92.3595ZM183.145 92.3595H178.845V91.6517H183.145V92.3595ZM174.545 92.3595H170.246V91.6517H174.545V92.3595ZM165.946 92.3595H161.646V91.6517H165.946V92.3595ZM157.347 92.3595H153.047V91.6517H157.347V92.3595ZM148.747 92.3595H144.448V91.6517H148.747V92.3595ZM140.148 92.3595H135.848V91.6517H140.148V92.3595ZM131.548 92.3595H127.249V91.6517H131.548V92.3595ZM122.949 92.3595H118.649V91.6517H122.949V92.3595ZM114.35 92.3595H110.05V91.6517H114.35V92.3595ZM105.75 92.3595H101.451V91.6517H105.75V92.3595ZM97.1509 92.3595H92.8512V91.6517H97.1509V92.3595ZM88.5515 92.3595H84.2518V91.6517H88.5515L88.5515 92.3595ZM79.952 92.3595H75.6525V91.6517H79.952V92.3595ZM71.3527 92.3595H67.053V91.6517H71.3527V92.3595ZM62.7533 92.3595H58.4536V91.6517H62.7533V92.3595ZM54.154 92.3595H49.8543V91.6517H54.154V92.3595ZM45.5546 92.3595H41.2548V91.6517H45.5546V92.3595ZM36.9551 92.3595H32.6555V91.6517H36.9551V92.3595ZM28.3558 92.3595H24.0561V91.6517H28.3558V92.3595Z" fill="#E6E6E6"/>
<path d="M292.755 91.6517H290.637V92.3595H292.755V91.6517Z" fill="#E6E6E6"/>
<path d="M19.7564 86.6973H17.6382V87.405H19.7564V86.6973Z" fill="#E6E6E6"/>
<path d="M286.337 87.405H282.038V86.6973H286.337V87.405ZM277.738 87.405H273.438V86.6973H277.738V87.405ZM269.138 87.405H264.839V86.6973H269.138V87.405ZM260.539 87.405H256.239V86.6973H260.539V87.405ZM251.94 87.405H247.64V86.6973H251.94V87.405ZM243.34 87.405H239.041V86.6973H243.34V87.405ZM234.741 87.405H230.441V86.6973H234.741V87.405ZM226.142 87.405H221.842V86.6973H226.142L226.142 87.405ZM217.542 87.405H213.243V86.6973H217.542V87.405ZM208.943 87.405H204.643V86.6973H208.943V87.405ZM200.344 87.405H196.044V86.6973H200.344V87.405ZM191.744 87.405H187.445V86.6973H191.744V87.405ZM183.145 87.405H178.845V86.6973H183.145V87.405ZM174.545 87.405H170.246V86.6973H174.545V87.405ZM165.946 87.405H161.646V86.6973H165.946V87.405ZM157.347 87.405H153.047V86.6973H157.347V87.405ZM148.747 87.405H144.448V86.6973H148.747V87.405ZM140.148 87.405H135.848V86.6973H140.148V87.405ZM131.548 87.405H127.249V86.6973H131.548V87.405ZM122.949 87.405H118.649V86.6973H122.949V87.405ZM114.35 87.405H110.05V86.6973H114.35V87.405ZM105.75 87.405H101.451V86.6973H105.75V87.405ZM97.1509 87.405H92.8512V86.6973H97.1509V87.405ZM88.5515 87.405H84.2518V86.6973H88.5515L88.5515 87.405ZM79.952 87.405H75.6525V86.6973H79.952V87.405ZM71.3527 87.405H67.053V86.6973H71.3527V87.405ZM62.7533 87.405H58.4536V86.6973H62.7533V87.405ZM54.154 87.405H49.8543V86.6973H54.154V87.405ZM45.5546 87.405H41.2548V86.6973H45.5546V87.405ZM36.9551 87.405H32.6555V86.6973H36.9551V87.405ZM28.3558 87.405H24.0561V86.6973H28.3558V87.405Z" fill="#E6E6E6"/>
<path d="M292.755 86.6973H290.637V87.405H292.755V86.6973Z" fill="#E6E6E6"/>
<path d="M19.7564 76.4344H17.6382V77.1422H19.7564V76.4344Z" fill="#E6E6E6"/>
<path d="M286.337 77.1422H282.038V76.4344H286.337V77.1422ZM277.738 77.1422H273.438V76.4344H277.738V77.1422ZM269.138 77.1422H264.839V76.4344H269.138V77.1422ZM260.539 77.1422H256.239V76.4344H260.539V77.1422ZM251.94 77.1422H247.64V76.4344H251.94V77.1422ZM243.34 77.1422H239.041V76.4344H243.34V77.1422ZM234.741 77.1422H230.441V76.4344H234.741V77.1422ZM226.142 77.1422H221.842V76.4344H226.142L226.142 77.1422ZM217.542 77.1422H213.243V76.4344H217.542V77.1422ZM208.943 77.1422H204.643V76.4344H208.943V77.1422ZM200.344 77.1422H196.044V76.4344H200.344V77.1422ZM191.744 77.1422H187.445V76.4344H191.744V77.1422ZM183.145 77.1422H178.845V76.4344H183.145V77.1422ZM174.545 77.1422H170.246V76.4344H174.545V77.1422ZM165.946 77.1422H161.646V76.4344H165.946V77.1422ZM157.347 77.1422H153.047V76.4344H157.347V77.1422ZM148.747 77.1422H144.448V76.4344H148.747V77.1422ZM140.148 77.1422H135.848V76.4344H140.148V77.1422ZM131.548 77.1422H127.249V76.4344H131.548V77.1422ZM122.949 77.1422H118.649V76.4344H122.949V77.1422ZM114.35 77.1422H110.05V76.4344H114.35V77.1422ZM105.75 77.1422H101.451V76.4344H105.75V77.1422ZM97.1509 77.1422H92.8512V76.4344H97.1509V77.1422ZM88.5515 77.1422H84.2518V76.4344H88.5515L88.5515 77.1422ZM79.952 77.1422H75.6525V76.4344H79.952V77.1422ZM71.3527 77.1422H67.053V76.4344H71.3527V77.1422ZM62.7533 77.1422H58.4536V76.4344H62.7533V77.1422ZM54.154 77.1422H49.8543V76.4344H54.154V77.1422ZM45.5546 77.1422H41.2548V76.4344H45.5546V77.1422ZM36.9551 77.1422H32.6555V76.4344H36.9551V77.1422ZM28.3558 77.1422H24.0561V76.4344H28.3558V77.1422Z" fill="#E6E6E6"/>
<path d="M292.755 76.4344H290.637V77.1422H292.755V76.4344Z" fill="#E6E6E6"/>
<path d="M19.7564 69.3566H17.6382V70.0644H19.7564V69.3566Z" fill="#E6E6E6"/>
<path d="M286.337 70.0644H282.038V69.3566H286.337V70.0644ZM277.738 70.0644H273.438V69.3566H277.738V70.0644ZM269.138 70.0644H264.839V69.3566H269.138V70.0644ZM260.539 70.0644H256.239V69.3566H260.539V70.0644ZM251.94 70.0644H247.64V69.3566H251.94V70.0644ZM243.34 70.0644H239.041V69.3566H243.34V70.0644ZM234.741 70.0644H230.441V69.3566H234.741V70.0644ZM226.142 70.0644H221.842V69.3566H226.142L226.142 70.0644ZM217.542 70.0644H213.243V69.3566H217.542V70.0644ZM208.943 70.0644H204.643V69.3566H208.943V70.0644ZM200.344 70.0644H196.044V69.3566H200.344V70.0644ZM191.744 70.0644H187.445V69.3566H191.744V70.0644ZM183.145 70.0644H178.845V69.3566H183.145V70.0644ZM174.545 70.0644H170.246V69.3566H174.545V70.0644ZM165.946 70.0644H161.646V69.3566H165.946V70.0644ZM157.347 70.0644H153.047V69.3566H157.347V70.0644ZM148.747 70.0644H144.448V69.3566H148.747V70.0644ZM140.148 70.0644H135.848V69.3566H140.148V70.0644ZM131.548 70.0644H127.249V69.3566H131.548V70.0644ZM122.949 70.0644H118.649V69.3566H122.949V70.0644ZM114.35 70.0644H110.05V69.3566H114.35V70.0644ZM105.75 70.0644H101.451V69.3566H105.75V70.0644ZM97.1509 70.0644H92.8512V69.3566H97.1509V70.0644ZM88.5515 70.0644H84.2518V69.3566H88.5515L88.5515 70.0644ZM79.952 70.0644H75.6525V69.3566H79.952V70.0644ZM71.3527 70.0644H67.053V69.3566H71.3527V70.0644ZM62.7533 70.0644H58.4536V69.3566H62.7533V70.0644ZM54.154 70.0644H49.8543V69.3566H54.154V70.0644ZM45.5546 70.0644H41.2548V69.3566H45.5546V70.0644ZM36.9551 70.0644H32.6555V69.3566H36.9551V70.0644ZM28.3558 70.0644H24.0561V69.3566H28.3558V70.0644Z" fill="#E6E6E6"/>
<path d="M292.755 69.3566H290.637V70.0644H292.755V69.3566Z" fill="#E6E6E6"/>
<path d="M19.7564 54.1393H17.6382V54.8471H19.7564V54.1393Z" fill="#E6E6E6"/>
<path d="M286.337 54.8471H282.038V54.1393H286.337V54.8471ZM277.738 54.8471H273.438V54.1393H277.738V54.8471ZM269.138 54.8471H264.839V54.1393H269.138V54.8471ZM260.539 54.8471H256.239V54.1393H260.539V54.8471ZM251.94 54.8471H247.64V54.1393H251.94V54.8471ZM243.34 54.8471H239.041V54.1393H243.34V54.8471ZM234.741 54.8471H230.441V54.1393H234.741V54.8471ZM226.142 54.8471H221.842V54.1393H226.142L226.142 54.8471ZM217.542 54.8471H213.243V54.1393H217.542V54.8471ZM208.943 54.8471H204.643V54.1393H208.943V54.8471ZM200.344 54.8471H196.044V54.1393H200.344V54.8471ZM191.744 54.8471H187.445V54.1393H191.744V54.8471ZM183.145 54.8471H178.845V54.1393H183.145V54.8471ZM174.545 54.8471H170.246V54.1393H174.545V54.8471ZM165.946 54.8471H161.646V54.1393H165.946V54.8471ZM157.347 54.8471H153.047V54.1393H157.347V54.8471ZM148.747 54.8471H144.448V54.1393H148.747V54.8471ZM140.148 54.8471H135.848V54.1393H140.148V54.8471ZM131.548 54.8471H127.249V54.1393H131.548V54.8471ZM122.949 54.8471H118.649V54.1393H122.949V54.8471ZM114.35 54.8471H110.05V54.1393H114.35V54.8471ZM105.75 54.8471H101.451V54.1393H105.75V54.8471ZM97.1509 54.8471H92.8512V54.1393H97.1509V54.8471ZM88.5515 54.8471H84.2518V54.1393H88.5515L88.5515 54.8471ZM79.952 54.8471H75.6525V54.1393H79.952V54.8471ZM71.3527 54.8471H67.053V54.1393H71.3527V54.8471ZM62.7533 54.8471H58.4536V54.1393H62.7533V54.8471ZM54.154 54.8471H49.8543V54.1393H54.154V54.8471ZM45.5546 54.8471H41.2548V54.1393H45.5546V54.8471ZM36.9551 54.8471H32.6555V54.1393H36.9551V54.8471ZM28.3558 54.8471H24.0561V54.1393H28.3558V54.8471Z" fill="#E6E6E6"/>
<path d="M292.755 54.1393H290.637V54.8471H292.755V54.1393Z" fill="#E6E6E6"/>
<path d="M120.201 33.6892C120.201 37.4992 119.074 41.2237 116.962 44.3916C114.85 47.5595 111.849 50.0286 108.338 51.4867C104.826 52.9447 100.963 53.3262 97.235 52.5829C93.5073 51.8396 90.0832 50.0049 87.3957 47.3108C84.7082 44.6167 82.878 41.1842 82.1365 37.4474C81.395 33.7106 81.7756 29.8373 83.2301 26.3173C84.6845 22.7972 87.1476 19.7886 90.3077 17.6719C93.4679 15.5552 97.1833 14.4254 100.984 14.4254C103.511 14.4141 106.015 14.9047 108.351 15.8688C110.688 16.8329 112.811 18.2514 114.597 20.0425C116.384 21.8335 117.799 23.9616 118.761 26.3039C119.722 28.6462 120.212 31.1563 120.201 33.6892Z" fill="#F2F2F2"/>
<path d="M108.843 29.0799L108.748 29.2518C109.594 27.1609 108.825 24.5844 107.315 23.0078C105.805 21.4312 103.707 20.7105 101.64 20.4245C100.106 20.1533 98.5282 20.2761 97.0544 20.7817C94.9419 21.5975 93.3279 23.486 91.9804 25.4506C91.364 26.3492 90.7579 27.3736 90.8193 28.4967C90.8763 29.5389 91.4935 30.4234 91.9989 31.3077C92.5043 32.1919 92.9264 33.289 92.5637 34.2541C92.3475 34.8293 91.8907 35.2435 91.52 35.714C91.1493 36.1844 90.8444 36.8204 91.0234 37.4107C91.1029 37.6365 91.2395 37.8378 91.4198 37.9949C91.6002 38.152 91.8181 38.2595 92.0522 38.307C92.5058 38.3828 92.9696 38.3718 93.4191 38.2745L105.199 36.4903C106 36.3691 106.759 36.0556 107.412 35.5766C108.066 35.0976 108.594 34.4672 108.952 33.7393C109.31 33.0114 109.487 32.2076 109.468 31.3963C109.449 30.5849 109.235 29.7902 108.843 29.0799Z" fill="#2F2E41"/>
<path d="M100.081 36.408C103.262 36.408 105.84 33.8231 105.84 30.6344C105.84 27.4458 103.262 24.8608 100.081 24.8608C96.9002 24.8608 94.3216 27.4458 94.3216 30.6344C94.3216 33.8231 96.9002 36.408 100.081 36.408Z" fill="#FFB9B9"/>
<path d="M115.413 46.4083C112.084 50.2058 107.399 52.5385 102.369 52.9029C97.3386 53.2674 92.3673 51.6342 88.528 48.3561L90.1763 43.7456C90.5488 42.9268 91.1366 42.225 91.8767 41.7155C92.6168 41.206 93.4812 40.9081 94.3774 40.8537L95.426 40.7892L97.9263 38.6274C97.9263 38.6274 104.663 38.3863 104.563 38.2708L108.644 40.7314L108.641 40.7144L110.245 40.8129C111.141 40.8671 112.006 41.1649 112.746 41.6744C113.486 42.1839 114.074 42.8859 114.446 43.7049L115.413 46.4083Z" fill="#6C63FF"/>
<path d="M105.544 25.2759C105.395 24.4874 104.593 24.1268 103.906 23.9521C101.912 23.4422 99.8386 23.328 97.8013 23.616C96.3162 23.8283 94.7959 24.2965 93.7183 25.4585C92.8494 26.437 92.3571 27.694 92.3298 29.0037C92.2858 29.7869 92.4604 30.5668 92.8338 31.256C93.0009 31.5769 93.2483 31.8487 93.5518 32.0448C93.8553 32.2409 94.2044 32.3545 94.5649 32.3744L94.634 32.6153C96.1249 32.3745 97.5463 31.8137 98.8009 30.9713C100.056 30.1288 101.114 29.0246 101.903 27.7342C101.586 28.8707 100.954 29.8939 100.081 30.6856C102.033 29.9025 103.73 28.5915 104.983 26.8985C105.325 26.4433 105.657 25.8757 105.544 25.2759Z" fill="#2F2E41"/>
<path d="M264.744 59.0591C275.357 59.0591 283.96 50.4344 283.96 39.7952C283.96 29.1561 275.357 20.5314 264.744 20.5314C254.131 20.5314 245.527 29.1561 245.527 39.7952C245.527 50.4344 254.131 59.0591 264.744 59.0591Z" fill="#F2F2F2"/>
<path d="M259.467 32.5668C260.965 32.5668 262.18 31.3491 262.18 29.8471C262.18 28.345 260.965 27.1273 259.467 27.1273C257.968 27.1273 256.754 28.345 256.754 29.8471C256.754 31.3491 257.968 32.5668 259.467 32.5668Z" fill="#2F2E41"/>
<path d="M263.808 42.9018C267.603 42.9018 270.681 39.817 270.681 36.0118C270.681 32.2066 267.603 29.1218 263.808 29.1218C260.012 29.1218 256.934 32.2066 256.934 36.0118C256.934 39.817 260.012 42.9018 263.808 42.9018Z" fill="#2F2E41"/>
<path d="M264.376 42.9001C267.461 42.9001 269.962 40.3934 269.962 37.3012C269.962 34.209 267.461 31.7023 264.376 31.7023C261.292 31.7023 258.791 34.209 258.791 37.3012C258.791 40.3934 261.292 42.9001 264.376 42.9001Z" fill="#9E616A"/>
<path d="M268.169 31.5939C267.191 30.9958 266.07 30.6722 264.923 30.6571C263.777 30.6419 262.648 30.9357 261.654 31.5078C260.66 32.0798 259.837 32.9091 259.272 33.9089C258.708 34.9086 258.421 36.0422 258.443 37.1911C261.288 37.9073 264.278 38.4555 267.313 37.3624L268.03 35.6039L268.453 37.3637C269.377 37.7424 270.304 38.0628 271.23 37.36C271.268 36.2144 271.005 35.0789 270.468 34.0671C269.931 33.0552 269.138 32.2024 268.169 31.5939Z" fill="#2F2E41"/>
<path d="M256.941 22.464C255.988 22.0565 254.941 21.9242 253.917 22.0823C252.894 22.2404 251.934 22.6825 251.148 23.3585C250.38 24.0538 249.795 24.929 249.445 25.906C249.096 26.883 248.993 27.9315 249.145 28.9581C249.453 31.0461 250.719 32.8441 251.886 34.6008C253.054 36.3574 254.194 38.2823 254.193 40.3929C254.192 41.9131 253.589 43.3709 252.518 44.4465C251.446 45.5222 249.993 46.128 248.476 46.131C250.256 46.8991 252.114 47.6823 254.049 47.5912C255.985 47.5001 258.014 46.2527 258.33 44.3362C258.557 42.9553 257.881 41.6087 257.318 40.3281C256.399 38.2416 255.736 36.0516 255.341 33.8057C255.153 32.7337 255.03 31.6068 255.379 30.576C255.656 29.8122 256.172 29.158 256.848 28.7099C257.525 28.2618 258.327 28.0435 259.137 28.0873L259.777 27.5105C259.886 26.4781 259.672 25.4372 259.164 24.5327C258.655 23.6282 257.878 22.9051 256.941 22.464Z" fill="#2F2E41"/>
<path d="M279.203 52.6842C275.874 56.4817 271.188 58.8144 266.158 59.1788C261.128 59.5432 256.157 57.9101 252.317 54.632L253.966 50.0215C254.338 49.2026 254.926 48.5008 255.666 47.9914C256.406 47.4819 257.271 47.184 258.167 47.1296L259.215 47.065L261.716 44.9033C261.716 44.9033 268.453 44.6621 268.353 44.5467L272.434 47.0073L272.43 46.9903L274.034 47.0888C274.931 47.143 275.795 47.4408 276.535 47.9503C277.275 48.4598 277.863 49.1617 278.235 49.9807L279.203 52.6842Z" fill="#6C63FF"/>
<path d="M229.285 19.298C229.278 23.108 228.145 26.8305 226.028 29.9946C223.91 33.1588 220.905 35.6226 217.391 37.0744C213.877 38.5261 210.012 38.9008 206.286 38.1508C202.56 37.4009 199.139 35.5601 196.456 32.8613C193.773 30.1624 191.949 26.7267 191.214 22.9885C190.48 19.2504 190.867 15.3778 192.328 11.8603C193.788 8.34293 196.257 5.33871 199.421 3.22759C202.585 1.11648 206.302 -0.00672504 210.103 3.02934e-05C212.628 -0.00205156 215.129 0.496186 217.462 1.4661C219.794 2.43602 221.913 3.8585 223.695 5.6518C225.478 7.44509 226.89 9.57384 227.849 11.9157C228.808 14.2576 229.296 16.7664 229.285 19.298Z" fill="#F2F2F2"/>
<path d="M201.162 12.9973C201.956 10.4587 203.763 8.13044 206.262 7.27227C208.761 6.41408 212.421 7.72137 214.299 9.59839C217.736 13.0318 218.575 24.8269 216.214 28.5543C215.744 28.5294 214.124 28.511 213.648 28.4931L212.976 26.2465V28.471C212.219 28.4475 211.455 28.4313 210.686 28.4224C208.108 28.3903 205.642 27.3573 203.807 25.5405C201.972 23.7236 200.912 21.2645 200.849 18.6801C200.787 16.2077 200.849 13.9977 201.162 12.9973Z" fill="#2F2E41"/>
<path d="M209.783 21.4108C212.808 21.4108 215.26 18.9528 215.26 15.9207C215.26 12.8887 212.808 10.4307 209.783 10.4307C206.759 10.4307 204.307 12.8887 204.307 15.9207C204.307 18.9528 206.759 21.4108 209.783 21.4108Z" fill="#9E616A"/>
<path d="M205.057 11.0991L211.363 7.93391C212.652 8.51627 213.762 9.43377 214.579 10.5913C215.395 11.7487 215.887 13.1041 216.005 14.5166L216.162 16.4039L213.522 15.7301L213.232 13.3169L212.784 15.5419L211.565 15.2311L211.577 11.4845L210.357 15.2284L206.005 14.226L205.057 11.0991Z" fill="#2F2E41"/>
<path d="M224.329 32.0119C220.999 35.8093 216.314 38.142 211.284 38.5065C206.254 38.8709 201.282 37.2378 197.443 33.9597L199.091 29.3492C199.464 28.5303 200.052 27.8285 200.792 27.319C201.532 26.8095 202.396 26.5116 203.293 26.4572L204.341 26.3927L206.841 24.2309C206.841 24.2309 213.578 23.9898 213.478 23.8743L217.559 26.3349L217.556 26.318L219.16 26.4164C220.056 26.4706 220.921 26.7684 221.661 27.2779C222.401 27.7874 222.989 28.4894 223.361 29.3084L224.329 32.0119Z" fill="#6C63FF"/>
<path d="M157.24 69.6758C167.853 69.6758 176.457 61.0511 176.457 50.412C176.457 39.7728 167.853 31.1481 157.24 31.1481C146.627 31.1481 138.023 39.7728 138.023 50.412C138.023 61.0511 146.627 69.6758 157.24 69.6758Z" fill="#F2F2F2"/>
<path d="M156.71 52.7983C160.098 52.7983 162.844 50.0452 162.844 46.6491C162.844 43.253 160.098 40.4999 156.71 40.4999C153.322 40.4999 150.576 43.253 150.576 46.6491C150.576 50.0452 153.322 52.7983 156.71 52.7983Z" fill="#FFB6B6"/>
<path d="M171.657 63.3009C168.328 67.0984 163.642 69.4311 158.612 69.7955C153.582 70.1599 148.611 68.5268 144.771 65.2487L146.42 60.6382C146.792 59.8194 147.38 59.1175 148.12 58.6081C148.86 58.0986 149.725 57.8007 150.621 57.7463L151.669 57.6818L154.17 55.52C154.17 55.52 160.907 55.2789 160.807 55.1634L164.888 57.624L164.884 57.607L166.488 57.7055C167.385 57.7597 168.249 58.0575 168.989 58.567C169.73 59.0765 170.317 59.7784 170.69 60.5975L171.657 63.3009Z" fill="#6C63FF"/>
<path d="M163.179 42.8355C162.661 40.9756 161.483 39.3693 159.867 38.3182C158.579 37.4924 156.972 37.0709 155.513 37.5076C154.054 37.9442 152.846 39.3796 152.942 40.9304C152.672 40.8592 152.387 40.8653 152.12 40.9479C151.853 41.0306 151.614 41.1865 151.431 41.3981C151.065 41.8313 150.81 42.3479 150.69 42.9026C150.222 44.6413 150.253 46.4773 150.779 48.1991L150.75 48.4462C151.462 48.3282 152.002 47.716 152.338 47.0637C152.674 46.4114 152.867 45.6877 153.231 45.0514C153.594 44.415 154.199 43.8474 154.92 43.8275L154.856 44.9321C155.476 44.6118 156.096 44.2915 156.717 43.9712C156.569 44.3249 156.422 44.6787 156.274 45.0324C156.816 44.8055 157.357 44.5786 157.899 44.3516C157.838 44.6918 157.778 45.0319 157.717 45.3721C157.859 45.0768 158.06 44.8135 158.306 44.5981C158.553 44.3826 158.84 44.2196 159.151 44.1187C159.462 44.0179 159.791 43.9813 160.116 44.0114C160.442 44.0414 160.758 44.1373 161.046 44.2933C161.693 44.7302 162.16 45.3885 162.359 46.1454C162.556 46.9004 162.661 47.6765 162.673 48.4568C163.51 46.7048 163.69 44.7093 163.179 42.8355Z" fill="#2F2E41"/>
<path d="M45.9885 78.4333C56.6015 78.4333 65.2051 69.8086 65.2051 59.1694C65.2051 48.5303 56.6015 39.9056 45.9885 39.9056C35.3754 39.9056 26.7718 48.5303 26.7718 59.1694C26.7718 69.8086 35.3754 78.4333 45.9885 78.4333Z" fill="#F2F2F2"/>
<path d="M45.5654 61.1676C48.7852 61.1676 51.3953 58.5511 51.3953 55.3234C51.3953 52.0958 48.7852 49.4793 45.5654 49.4793C42.3457 49.4793 39.7355 52.0958 39.7355 55.3234C39.7355 58.5511 42.3457 61.1676 45.5654 61.1676Z" fill="#9E616A"/>
<path d="M60.1578 71.8885C56.8286 75.6859 52.1432 78.0187 47.1132 78.3831C42.0831 78.7475 37.1118 77.1144 33.2725 73.8363L34.9207 69.2258C35.2932 68.4069 35.881 67.7051 36.6211 67.1956C37.3612 66.6862 38.2257 66.3883 39.1218 66.3338L40.1704 66.2693L42.6708 64.1076C42.6708 64.1076 49.4078 63.8664 49.3078 63.7509L53.3887 66.2116L53.3853 66.1946L54.9895 66.2931C55.8857 66.3473 56.7503 66.6451 57.4904 67.1546C58.2305 67.6641 58.8183 68.366 59.1906 69.185L60.1578 71.8885Z" fill="#6C63FF"/>
<path d="M40.269 58.0259C40.2574 57.9938 40.2469 57.9612 40.2355 57.929C40.2129 57.949 40.1913 57.9695 40.1668 57.9881L40.269 58.0259Z" fill="#2F2E41"/>
<path d="M52.549 53.2444C52.5191 52.6514 52.3641 52.0714 52.0944 51.5428C51.8246 51.0142 51.4461 50.549 50.9839 50.1777C50.6161 49.9473 50.2918 49.6534 50.0262 49.3098C49.8979 49.0471 49.7891 48.7752 49.7008 48.4964C49.2533 47.4286 47.9778 46.861 46.8337 47.0227C46.2647 47.1311 45.7234 47.3534 45.2421 47.6762C44.7608 47.9991 44.3494 48.4159 44.0325 48.9018C43.7039 48.7439 43.3371 48.6838 42.9754 48.7285C42.6138 48.7732 42.2725 48.9208 41.9919 49.1539C41.7114 49.387 41.5034 49.6958 41.3925 50.0437C41.2816 50.3917 41.2725 50.7642 41.3662 51.1172C40.7737 50.6387 39.8154 51.0214 39.4455 51.6879C39.0757 52.3545 39.1344 53.17 39.2443 53.9247C39.4435 55.2887 39.7753 56.6298 40.2351 57.929C40.812 57.4198 40.7765 56.4923 40.706 55.7083C40.6328 54.8939 40.6766 53.8995 41.3871 53.4976C42.0735 53.1093 42.9067 53.5356 43.6635 53.7561C44.2619 53.926 44.8899 53.9638 45.5043 53.8669C46.1187 53.77 46.7048 53.5408 47.2223 53.1949C47.5947 52.8979 47.9855 52.6249 48.3925 52.3776C48.598 52.256 48.8315 52.1899 49.0701 52.1856C49.3087 52.1813 49.5444 52.2391 49.7541 52.3534C50.086 52.6401 50.309 53.0329 50.3853 53.4654C50.6767 54.4561 50.9682 55.4467 51.2596 56.4373C51.6873 56.0267 52.0234 55.5298 52.2457 54.9794C52.468 54.429 52.5713 53.8377 52.549 53.2444Z" fill="#2F2E41"/>
<path d="M46.0524 93.2593H44.218V147.158H46.0524V93.2593Z" fill="#3F3D56"/>
<path d="M100.97 68.0868H99.1357V147.158H100.97V68.0868Z" fill="#3F3D56"/>
<path d="M156.001 84.6365H154.166V147.158H156.001V84.6365Z" fill="#3F3D56"/>
<path d="M211.032 54.2953H209.197V147.158H211.032V54.2953Z" fill="#3F3D56"/>
<path d="M266.062 75.4422H264.228V147.158H266.062V75.4422Z" fill="#3F3D56"/>
<path d="M100.166 74.9796C103.265 74.9796 105.778 72.461 105.778 69.3542C105.778 66.2474 103.265 63.7289 100.166 63.7289C97.0668 63.7289 94.5544 66.2474 94.5544 69.3542C94.5544 72.461 97.0668 74.9796 100.166 74.9796Z" fill="#6C63FF"/>
<path d="M210.227 60.2687C213.327 60.2687 215.839 57.7501 215.839 54.6433C215.839 51.5365 213.327 49.018 210.227 49.018C207.128 49.018 204.616 51.5365 204.616 54.6433C204.616 57.7501 207.128 60.2687 210.227 60.2687Z" fill="#6C63FF"/>
<path d="M155.197 90.6099C158.296 90.6099 160.808 88.0913 160.808 84.9845C160.808 81.8777 158.296 79.3592 155.197 79.3592C152.098 79.3592 149.585 81.8777 149.585 84.9845C149.585 88.0913 152.098 90.6099 155.197 90.6099Z" fill="#6C63FF"/>
<path d="M45.1353 98.8848C48.2345 98.8848 50.7469 96.3662 50.7469 93.2594C50.7469 90.1526 48.2345 87.634 45.1353 87.634C42.0361 87.634 39.5237 90.1526 39.5237 93.2594C39.5237 96.3662 42.0361 98.8848 45.1353 98.8848Z" fill="#6C63FF"/>
<path d="M265.258 80.4962C268.357 80.4962 270.87 77.9776 270.87 74.8708C270.87 71.764 268.357 69.2454 265.258 69.2454C262.159 69.2454 259.647 71.764 259.647 74.8708C259.647 77.9776 262.159 80.4962 265.258 80.4962Z" fill="#6C63FF"/>
<path d="M304.622 146.602H6.70674L4.83621 147.54C4.83622 147.788 4.93476 148.027 5.11015 148.203C5.28555 148.378 5.52343 148.477 5.77148 148.477H304.622C304.87 148.477 305.108 148.378 305.283 148.203C305.459 148.027 305.557 147.788 305.557 147.54C305.557 147.291 305.459 147.053 305.283 146.877C305.108 146.701 304.87 146.602 304.622 146.602Z" fill="#3F3D56"/>
<path d="M5.6116 152.721C8.71079 152.721 11.2232 150.202 11.2232 147.096C11.2232 143.989 8.71079 141.47 5.6116 141.47C2.5124 141.47 0 143.989 0 147.096C0 150.202 2.5124 152.721 5.6116 152.721Z" fill="#3F3D56"/>
<path d="M45.1503 169C48.2495 169 50.7619 166.481 50.7619 163.375C50.7619 160.268 48.2495 157.749 45.1503 157.749C42.0511 157.749 39.5387 160.268 39.5387 163.375C39.5387 166.481 42.0511 169 45.1503 169Z" fill="#E6E6E6"/>
<path d="M100.222 169C103.321 169 105.834 166.481 105.834 163.375C105.834 160.268 103.321 157.749 100.222 157.749C97.1229 157.749 94.6105 160.268 94.6105 163.375C94.6105 166.481 97.1229 169 100.222 169Z" fill="#E6E6E6"/>
<path d="M155.294 169C158.393 169 160.906 166.481 160.906 163.375C160.906 160.268 158.393 157.749 155.294 157.749C152.195 157.749 149.682 160.268 149.682 163.375C149.682 166.481 152.195 169 155.294 169Z" fill="#E6E6E6"/>
<path d="M210.013 169C213.112 169 215.624 166.481 215.624 163.375C215.624 160.268 213.112 157.749 210.013 157.749C206.914 157.749 204.401 160.268 204.401 163.375C204.401 166.481 206.914 169 210.013 169Z" fill="#E6E6E6"/>
<path d="M265.085 169C268.184 169 270.696 166.481 270.696 163.375C270.696 160.268 268.184 157.749 265.085 157.749C261.985 157.749 259.473 160.268 259.473 163.375C259.473 166.481 261.985 169 265.085 169Z" fill="#E6E6E6"/>
<path d="M306.388 152.721C309.488 152.721 312 150.202 312 147.096C312 143.989 309.488 141.47 306.388 141.47C303.289 141.47 300.777 143.989 300.777 147.096C300.777 150.202 303.289 152.721 306.388 152.721Z" fill="#3F3D56"/>
</svg>
