<svg width="90" height="40" viewBox="0 0 90 40" fill="none" xmlns="http://www.w3.org/2000/svg">
<rect width="90" height="40" rx="5" fill="#232426"/>
<path d="M37.656 26H35.416L30.344 18.336V26H28.104V14.816H30.344L35.416 22.496V14.816H37.656V26ZM48.1096 21.376C48.1096 21.696 48.0883 21.984 48.0456 22.24H41.5656C41.619 22.88 41.843 23.3813 42.2376 23.744C42.6323 24.1067 43.1176 24.288 43.6936 24.288C44.5256 24.288 45.1176 23.9307 45.4696 23.216H47.8856C47.6296 24.0693 47.139 24.7733 46.4136 25.328C45.6883 25.872 44.7976 26.144 43.7416 26.144C42.8883 26.144 42.1203 25.9573 41.4376 25.584C40.7656 25.2 40.2376 24.6613 39.8536 23.968C39.4803 23.2747 39.2936 22.4747 39.2936 21.568C39.2936 20.6507 39.4803 19.8453 39.8536 19.152C40.227 18.4587 40.7496 17.9253 41.4216 17.552C42.0936 17.1787 42.867 16.992 43.7416 16.992C44.5843 16.992 45.3363 17.1733 45.9976 17.536C46.6696 17.8987 47.187 18.416 47.5496 19.088C47.923 19.7493 48.1096 20.512 48.1096 21.376ZM45.7896 20.736C45.779 20.16 45.571 19.7013 45.1656 19.36C44.7603 19.008 44.2643 18.832 43.6776 18.832C43.123 18.832 42.6536 19.0027 42.2696 19.344C41.8963 19.6747 41.667 20.1387 41.5816 20.736H45.7896ZM54.6406 26L52.8166 23.248L51.2006 26H48.8006L51.6966 21.552L48.7686 17.136H51.2966L53.1046 19.872L54.7366 17.136H57.1366L54.2246 21.552L57.1686 26H54.6406ZM60.9933 18.976V23.264C60.9933 23.5627 61.0626 23.7813 61.2013 23.92C61.3506 24.048 61.5959 24.112 61.9373 24.112H62.9773V26H61.5693C59.6813 26 58.7373 25.0827 58.7373 23.248V18.976H57.6813V17.136H58.7373V14.944H60.9933V17.136H62.9773V18.976H60.9933Z" fill="#F2F2F2"/>
</svg>
