<svg width="34" height="18" viewBox="0 0 34 18" fill="none" xmlns="http://www.w3.org/2000/svg">
<path d="M4.96 13.112C4.18133 13.112 3.47733 12.9787 2.848 12.712C2.22933 12.4453 1.73867 12.0613 1.376 11.56C1.01333 11.0587 0.826667 10.4667 0.816 9.784H3.216C3.248 10.2427 3.408 10.6053 3.696 10.872C3.99467 11.1387 4.4 11.272 4.912 11.272C5.43467 11.272 5.84533 11.1493 6.144 10.904C6.44267 10.648 6.592 10.3173 6.592 9.912C6.592 9.58133 6.49067 9.30933 6.288 9.096C6.08533 8.88267 5.82933 8.71733 5.52 8.6C5.22133 8.472 4.80533 8.33333 4.272 8.184C3.54667 7.97067 2.95467 7.76267 2.496 7.56C2.048 7.34667 1.65867 7.032 1.328 6.616C1.008 6.18933 0.848 5.624 0.848 4.92C0.848 4.25867 1.01333 3.68267 1.344 3.192C1.67467 2.70133 2.13867 2.328 2.736 2.072C3.33333 1.80533 4.016 1.672 4.784 1.672C5.936 1.672 6.86933 1.95467 7.584 2.52C8.30933 3.07467 8.70933 3.85333 8.784 4.856H6.32C6.29867 4.472 6.13333 4.15733 5.824 3.912C5.52533 3.656 5.12533 3.528 4.624 3.528C4.18667 3.528 3.83467 3.64 3.568 3.864C3.312 4.088 3.184 4.41333 3.184 4.84C3.184 5.13867 3.28 5.38933 3.472 5.592C3.67467 5.784 3.92 5.944 4.208 6.072C4.50667 6.18933 4.92267 6.328 5.456 6.488C6.18133 6.70133 6.77333 6.91467 7.232 7.128C7.69067 7.34133 8.08533 7.66133 8.416 8.088C8.74667 8.51467 8.912 9.07467 8.912 9.768C8.912 10.3653 8.75733 10.92 8.448 11.432C8.13867 11.944 7.68533 12.3547 7.088 12.664C6.49067 12.9627 5.78133 13.112 4.96 13.112ZM16.102 13L13.094 9.224V13H10.854V1.16H13.094V7.896L16.07 4.136H18.982L15.078 8.584L19.014 13H16.102ZM21.3338 3.08C20.9391 3.08 20.6084 2.95733 20.3418 2.712C20.0858 2.456 19.9578 2.14133 19.9578 1.768C19.9578 1.39467 20.0858 1.08533 20.3418 0.839999C20.6084 0.583999 20.9391 0.455999 21.3338 0.455999C21.7284 0.455999 22.0538 0.583999 22.3098 0.839999C22.5764 1.08533 22.7098 1.39467 22.7098 1.768C22.7098 2.14133 22.5764 2.456 22.3098 2.712C22.0538 2.95733 21.7284 3.08 21.3338 3.08ZM22.4378 4.136V13H20.1978V4.136H22.4378ZM26.8909 5.416C27.1789 5.01067 27.5735 4.67467 28.0749 4.408C28.5869 4.13067 29.1682 3.992 29.8189 3.992C30.5762 3.992 31.2589 4.17867 31.8669 4.552C32.4855 4.92533 32.9709 5.45867 33.3229 6.152C33.6855 6.83467 33.8669 7.62933 33.8669 8.536C33.8669 9.44267 33.6855 10.248 33.3229 10.952C32.9709 11.6453 32.4855 12.184 31.8669 12.568C31.2589 12.952 30.5762 13.144 29.8189 13.144C29.1682 13.144 28.5922 13.0107 28.0909 12.744C27.6002 12.4773 27.2002 12.1413 26.8909 11.736V17.224H24.6509V4.136H26.8909V5.416ZM31.5789 8.536C31.5789 8.00267 31.4669 7.544 31.2429 7.16C31.0295 6.76533 30.7415 6.46667 30.3789 6.264C30.0269 6.06133 29.6429 5.96 29.2269 5.96C28.8215 5.96 28.4375 6.06667 28.0749 6.28C27.7229 6.48267 27.4349 6.78133 27.2109 7.176C26.9975 7.57067 26.8909 8.03467 26.8909 8.568C26.8909 9.10133 26.9975 9.56533 27.2109 9.96C27.4349 10.3547 27.7229 10.6587 28.0749 10.872C28.4375 11.0747 28.8215 11.176 29.2269 11.176C29.6429 11.176 30.0269 11.0693 30.3789 10.856C30.7415 10.6427 31.0295 10.3387 31.2429 9.944C31.4669 9.54933 31.5789 9.08 31.5789 8.536Z" fill="#F2F2F2"/>
</svg>
