<svg width="323" height="239" viewBox="0 0 323 239" fill="none" xmlns="http://www.w3.org/2000/svg">
<g clip-path="url(#clip0_11_62)">
<path d="M229.268 175.293H55.328C53.7782 175.291 52.2924 174.674 51.1965 173.577C50.1006 172.48 49.4841 170.993 49.4823 169.441V27.6744C49.4841 26.123 50.1006 24.6358 51.1965 23.5388C52.2924 22.4419 53.7782 21.8249 55.328 21.8231H229.268C230.818 21.8249 232.304 22.4419 233.399 23.5388C234.495 24.6358 235.112 26.123 235.114 27.6744V169.441C235.112 170.993 234.495 172.48 233.399 173.577C232.304 174.674 230.818 175.291 229.268 175.293Z" fill="#E6E6E6"/>
<path d="M59.272 25.9879C57.7791 25.9896 56.3478 26.584 55.2922 27.6407C54.2365 28.6974 53.6427 30.13 53.6411 31.6244V165.495C53.6428 166.989 54.2367 168.422 55.2923 169.478C56.3479 170.535 57.7791 171.129 59.272 171.131H178.327C192.28 171.115 205.657 165.56 215.524 155.684C225.39 145.808 230.94 132.418 230.956 118.452V31.6244C230.954 30.13 230.36 28.6974 229.305 27.6407C228.249 26.584 226.818 25.9896 225.325 25.9879L59.272 25.9879Z" fill="white"/>
<path d="M197.55 86.1954H166.01C165.353 86.1946 164.722 85.9327 164.257 85.4672C163.792 85.0016 163.53 84.3703 163.529 83.7119V67.9992C163.53 67.3408 163.792 66.7095 164.257 66.244C164.722 65.7784 165.353 65.5165 166.01 65.5158H197.55C198.208 65.5165 198.838 65.7784 199.303 66.244C199.769 66.7095 200.03 67.3408 200.031 67.9992C201.982 73.5596 202.26 78.843 200.031 83.7119C200.03 84.3704 199.769 85.0016 199.303 85.4672C198.838 85.9328 198.208 86.1946 197.55 86.1954Z" fill="#E6E6E6"/>
<path d="M193.813 84.6768H167.017C166.459 84.6762 165.923 84.4537 165.528 84.0581C165.132 83.6626 164.91 83.1263 164.91 82.5669V69.2173C164.91 68.6579 165.132 68.1216 165.528 67.726C165.923 67.3305 166.459 67.108 167.017 67.1073H193.813C194.372 67.108 194.908 67.3305 195.303 67.726C195.698 68.1216 195.921 68.6579 195.921 69.2173C197.73 73.9716 198.021 78.4704 195.921 82.5668C195.921 83.1262 195.698 83.6626 195.303 84.0581C194.908 84.4537 194.372 84.6762 193.813 84.6768Z" fill="white"/>
<path d="M192.368 94.4261H171.122C170.812 94.4268 170.506 94.3665 170.219 94.2485C169.933 94.1305 169.673 93.9572 169.453 93.7385C169.234 93.5198 169.06 93.26 168.941 92.9739C168.822 92.6878 168.76 92.381 168.759 92.0711C168.759 91.7611 168.819 91.4541 168.937 91.1676C169.055 90.8811 169.229 90.6206 169.447 90.4011C169.666 90.1815 169.925 90.0073 170.211 89.8882C170.497 89.7692 170.804 89.7077 171.113 89.7072H192.368C192.993 89.7084 193.591 89.9575 194.032 90.3999C194.473 90.8422 194.721 91.4417 194.721 92.0667C194.721 92.6917 194.473 93.2911 194.032 93.7335C193.591 94.1758 192.993 94.4249 192.368 94.4261Z" fill="#E6E6E6"/>
<path d="M178.083 70.712C177.839 70.7128 177.605 70.8105 177.432 70.9836C177.259 71.1567 177.162 71.3912 177.162 71.6359V81.637C177.161 81.7985 177.204 81.9572 177.284 82.0972C177.365 82.2371 177.481 82.3535 177.62 82.4346C177.76 82.5158 177.918 82.5588 178.079 82.5595C178.241 82.5601 178.399 82.5184 178.539 82.4383L187.358 77.405C187.5 77.3243 187.618 77.2073 187.7 77.0661C187.782 76.9248 187.824 76.7644 187.824 76.6011C187.824 76.4379 187.78 76.2777 187.697 76.1369C187.615 75.9962 187.496 75.8798 187.354 75.7999L178.535 70.8317C178.398 70.7534 178.242 70.7122 178.083 70.712Z" fill="#E6E6E6"/>
<path d="M306.747 219.865C306.261 219.246 305.601 218.787 304.851 218.547C304.102 218.307 303.297 218.298 302.542 218.52L302.377 218.569L300.897 224.356C300.675 223.493 300.2 221.546 299.901 219.641L299.875 219.483L299.728 219.548C298.18 220.232 296.725 221.11 295.397 222.161C293.044 224.05 291.13 226.429 289.789 229.133C288.447 231.837 287.71 234.801 287.629 237.819L287.626 237.93L287.624 238L287.82 237.93L292.027 236.425C293.89 236.589 295.766 236.335 297.519 235.681C299.271 235.027 300.855 233.99 302.156 232.645C303.856 230.85 305.022 228.541 306.149 226.308C306.479 225.657 306.817 224.986 307.163 224.34C307.548 223.638 307.715 222.837 307.641 222.039C307.567 221.241 307.256 220.484 306.747 219.865Z" fill="#F2F2F2"/>
<path d="M199.298 72.2957C199.383 72.7338 199.562 73.148 199.824 73.5092C200.085 73.8703 200.423 74.1697 200.813 74.3861C201.202 74.6026 201.635 74.7308 202.079 74.7619C202.524 74.793 202.97 74.7261 203.386 74.566L215.961 89.2086L217.553 83.8031L205.086 70.4067C204.771 69.725 204.217 69.1826 203.529 68.8824C202.841 68.5822 202.067 68.5449 201.354 68.7778C200.64 69.0106 200.037 69.4974 199.658 70.1458C199.279 70.7942 199.151 71.5591 199.298 72.2957Z" fill="#FFB8B8"/>
<path d="M249.978 234.43H245.817L243.837 218.363H249.979L249.978 234.43Z" fill="#FFB6B6"/>
<path d="M249.867 233.069L245.424 231.26L245.297 231.208L242.844 233.069C241.459 233.07 240.13 233.62 239.151 234.601C238.171 235.581 237.621 236.911 237.621 238.297V238.467H251.039V233.069H249.867Z" fill="#2F2E41"/>
<path d="M279.666 234.43H275.504L273.524 218.363H279.666L279.666 234.43Z" fill="#FFB6B6"/>
<path d="M279.554 233.069L275.111 231.26L274.984 231.208L272.531 233.069C271.146 233.07 269.817 233.62 268.838 234.601C267.858 235.581 267.308 236.911 267.308 238.297V238.467H280.726V233.069H279.554Z" fill="#2F2E41"/>
<path d="M269.844 138.485C269.844 138.485 275.063 143.92 275.063 148.387C275.063 152.853 273.759 158.985 275.063 160.327C276.368 161.669 278 163.302 276.042 165.261C274.085 167.221 273.106 168.2 274.411 169.506C275.716 170.813 275.063 193.67 275.063 193.67L281.914 224.365H273.283L262.34 193.67L259.404 168.2L249.909 192.691L250.957 224.629L241.934 224.365L238.199 190.405C238.199 190.405 243.745 158.1 242.767 157.273C241.788 156.445 242.767 154.773 242.767 154.773L245.376 142.403L269.844 138.485Z" fill="#2F2E41"/>
<path d="M259.624 99.9465C259.624 99.9465 261.399 92.9461 253.222 90.939C245.045 88.9319 221.672 86.3534 221.672 86.3534L209.86 73.8072L205.857 79.6254L219.099 96.0963L250.475 102.547L259.624 99.9465Z" fill="#3F3D56"/>
<path d="M207.803 79.1966C208.17 78.7209 208.457 78.1886 208.653 77.6206L210.347 73.4542L209.907 73.4358C209.298 73.3212 208.673 73.3366 208.07 73.481C207.468 73.6255 206.903 73.8956 206.413 74.2738C205.922 74.6519 205.517 75.1296 205.224 75.6755C204.931 76.2213 204.756 76.823 204.711 77.4412C204.656 77.9758 204.752 78.5154 204.988 78.9981C205.109 79.2373 205.284 79.4447 205.5 79.6031C205.716 79.7616 205.966 79.8666 206.23 79.9096C206.53 79.9257 206.83 79.8693 207.103 79.7452C207.377 79.6211 207.617 79.433 207.803 79.1966Z" fill="#E6E6E6"/>
<path d="M243.711 144.072L242.732 151.173C242.732 151.173 244.689 153.277 245.668 153.014C246.647 152.751 250.235 151.22 250.235 151.22C250.235 151.22 254.476 153.54 256.76 153.803C259.043 154.066 271.114 152.488 271.44 151.699C271.766 150.91 275.558 147.821 275.558 147.821L274.05 138.811L243.711 144.072Z" fill="#E6E6E6"/>
<path d="M275.495 119.229C275.495 119.229 274.667 126.076 275.319 126.707C275.972 127.333 274.667 131.301 273.362 133.913C272.057 136.526 274.34 136.852 274.34 138.811C274.34 140.771 275.319 147.955 275.319 147.955C275.319 147.955 265.206 148.608 263.575 146.975C261.944 145.342 259.334 146.648 255.745 150.24C252.157 153.832 244.363 150.893 242.732 149.261C241.101 147.628 244.001 141.75 244.98 140.611C245.958 139.471 244.037 140.79 243.058 137.179C242.079 133.567 244.001 133.913 245.632 132.281C247.263 130.648 245.632 127.709 244.327 124.77C243.022 121.831 244.001 99.953 244.001 94.7283C244.001 89.5037 251.178 88.8506 251.178 88.8506L254.02 85.275L256.107 82.6463L260.198 82.483L260.306 82.4798L264.263 82.3198L266.185 84.5598L270.426 89.5037L275.319 90.4833C279.234 91.7895 278.255 99.953 278.255 99.953L275.495 119.229Z" fill="#3F3D56"/>
<path d="M259.996 81.0665C264.628 81.0665 268.382 77.3085 268.382 72.6727C268.382 68.0369 264.628 64.2788 259.996 64.2788C255.365 64.2788 251.611 68.0369 251.611 72.6727C251.611 77.3085 255.365 81.0665 259.996 81.0665Z" fill="#FFB6B6"/>
<path d="M269.72 69.849C267.413 68.4331 267.709 64.731 265.486 63.4383C264.382 62.8009 263.14 62.4401 261.866 62.3866C260.592 62.333 259.324 62.5883 258.17 63.1307C256.605 62.4604 254.729 62.9954 253.477 64.2058C252.225 65.4162 251.547 67.2018 251.347 68.9977C251.203 70.8019 251.332 72.6177 251.731 74.3832C251.856 73.6739 251.98 72.9645 252.104 72.2552C254.308 71.7731 256.512 71.291 258.715 70.809C258.13 71.3353 257.545 71.8616 256.959 72.3879C259.954 73.0701 263.095 72.5784 265.738 71.0137C268.616 72.3051 268.094 75.2054 265.568 79.0544C266.547 80.6871 272.348 71.4623 269.72 69.849Z" fill="#2F2E41"/>
<path d="M266.185 84.5598C266.166 84.5751 266.146 84.5892 266.126 84.6023C265.435 85.0148 264.644 85.2295 263.839 85.2227C262.786 85.3107 261.74 84.9825 260.926 84.3084C260.498 83.9035 258.799 84.759 257.683 85.2325C256.513 85.718 255.201 85.7332 254.02 85.275L256.107 82.6463L259.548 81.8826H260.408L264.263 82.3198L266.185 84.5598Z" fill="#E6E6E6"/>
<path d="M322.491 238.868L205.761 239C205.694 239.001 205.627 238.988 205.565 238.962C205.502 238.937 205.446 238.9 205.398 238.852C205.35 238.805 205.312 238.749 205.286 238.687C205.26 238.625 205.246 238.558 205.246 238.491C205.245 238.423 205.258 238.357 205.284 238.294C205.309 238.232 205.347 238.175 205.394 238.128C205.441 238.08 205.498 238.042 205.56 238.016C205.622 237.99 205.689 237.976 205.756 237.976H205.761L322.491 237.844C322.626 237.845 322.756 237.899 322.851 237.995C322.947 238.091 323 238.221 323 238.356C323 238.491 322.947 238.621 322.851 238.717C322.756 238.813 322.626 238.867 322.491 238.868Z" fill="#CACACA"/>
<path d="M182.723 66.9419H181.864V5.43939H215.651V6.29931H182.723V66.9419Z" fill="#3F3D56"/>
<path d="M241.928 0H219.162C217.681 0 216.26 0.588889 215.213 1.63712C214.166 2.68534 213.577 4.10704 213.577 5.58945C213.577 7.07187 214.166 8.49357 215.213 9.54179C216.26 10.59 217.681 11.1789 219.162 11.1789H241.928C243.409 11.1789 244.829 10.59 245.876 9.54179C246.923 8.49357 247.512 7.07187 247.512 5.58945C247.512 4.10704 246.923 2.68534 245.876 1.63712C244.829 0.588889 243.409 0 241.928 0Z" fill="#6C63FF"/>
<path d="M181.795 72.5685C184.629 72.5685 186.926 70.2689 186.926 67.4322C186.926 64.5956 184.629 62.296 181.795 62.296C178.961 62.296 176.664 64.5956 176.664 67.4322C176.664 70.2689 178.961 72.5685 181.795 72.5685Z" fill="#6C63FF"/>
<path d="M119.961 86.7321L142.472 81.5179L148.934 80.0213C149.742 79.834 149.406 78.5885 148.597 78.7758L126.086 83.99L119.625 85.4867C118.817 85.6739 119.152 86.9194 119.961 86.7321L119.961 86.7321Z" fill="#F2F2F2"/>
<path d="M143.207 73.153L155.258 78.7018C155.669 78.8442 156.054 79.0529 156.398 79.3197C156.731 79.6459 156.489 79.9595 156.217 80.2436C155.406 81.0017 154.549 81.7094 153.652 82.3627L148.518 86.5408C147.873 87.0653 148.783 87.9804 149.421 87.4609L153.893 83.8219L156.129 82.0025C156.762 81.487 157.533 80.961 157.788 80.1398C158.323 78.4146 156.212 77.7286 155.039 77.1886L149.791 74.7722L143.863 72.0425C143.116 71.6985 142.454 72.8063 143.207 73.153Z" fill="#F2F2F2"/>
<path d="M194.361 130.2C192.514 128.378 190.047 127.372 187.573 126.728C184.752 126.047 181.896 125.523 179.017 125.159C176.035 124.73 173.042 124.399 170.037 124.166C167.036 123.935 164.03 123.802 161.018 123.769C158.33 123.693 155.639 123.783 152.962 124.036C150.43 124.258 147.96 124.936 145.669 126.036C143.65 127.043 141.954 128.597 140.774 130.521C139.632 132.319 139.103 134.439 139.268 136.563C139.373 137.6 139.695 138.602 140.214 139.506C140.822 140.504 141.596 141.39 142.504 142.126C144.378 143.71 146.618 144.867 148.23 146.75C148.656 147.243 149.028 147.78 149.339 148.352C149.542 148.788 149.866 149.156 150.272 149.413C150.661 149.635 151.106 149.737 151.553 149.705C151.999 149.674 152.426 149.512 152.78 149.238C153.255 148.788 153.675 148.284 154.031 147.735L155.386 145.989C155.484 145.833 155.598 145.687 155.725 145.553C155.816 145.477 155.666 145.544 155.696 145.525C155.712 145.515 155.741 145.521 155.759 145.513C155.849 145.487 155.942 145.47 156.035 145.462C157.025 145.28 158.016 145.109 159.01 144.951C162.678 144.358 166.371 143.87 170.079 143.606C171.99 143.453 173.908 143.408 175.824 143.469C178.302 143.57 180.746 144.063 183.215 144.275C185.873 144.504 188.665 144.473 191.169 143.447C193.229 142.662 194.97 141.217 196.121 139.336C196.636 138.434 196.941 137.427 197.014 136.39C197.146 134.038 196.004 131.821 194.361 130.2Z" fill="#E6E6E6"/>
<path d="M189.802 130.694C188.133 129.047 185.904 128.138 183.668 127.556C181.119 126.941 178.538 126.467 175.936 126.138C173.242 125.75 170.537 125.451 167.821 125.241C165.109 125.032 162.393 124.912 159.671 124.882C157.241 124.814 154.81 124.894 152.391 125.123C150.103 125.324 147.871 125.936 145.8 126.931C143.976 127.841 142.444 129.245 141.377 130.984C140.345 132.608 139.867 134.524 140.016 136.444C140.111 137.38 140.402 138.286 140.871 139.103C141.42 140.005 142.12 140.806 142.94 141.471C144.634 142.902 146.658 143.948 148.115 145.649C148.499 146.095 148.835 146.58 149.117 147.097C149.301 147.491 149.593 147.823 149.96 148.056C150.311 148.256 150.714 148.348 151.117 148.32C151.521 148.292 151.907 148.145 152.227 147.897C152.656 147.491 153.036 147.035 153.357 146.539L154.582 144.962C154.67 144.82 154.773 144.688 154.888 144.568C154.97 144.499 154.834 144.559 154.861 144.542C154.876 144.533 154.902 144.538 154.918 144.532C155 144.508 155.084 144.493 155.168 144.485C156.062 144.321 156.958 144.167 157.856 144.023C161.171 143.488 164.508 143.046 167.859 142.808C169.586 142.67 171.319 142.629 173.051 142.684C175.29 142.776 177.499 143.221 179.73 143.413C182.132 143.62 184.655 143.591 186.918 142.664C188.779 141.955 190.352 140.649 191.392 138.949C191.858 138.134 192.134 137.224 192.199 136.287C192.319 134.162 191.287 132.158 189.802 130.694Z" fill="white"/>
<path d="M185.375 132.294H153.227C153.135 132.295 153.044 132.277 152.959 132.242C152.874 132.207 152.796 132.156 152.731 132.091C152.666 132.026 152.614 131.949 152.578 131.864C152.543 131.779 152.524 131.688 152.524 131.596C152.524 131.504 152.542 131.413 152.577 131.328C152.612 131.242 152.663 131.165 152.728 131.1C152.793 131.035 152.87 130.983 152.955 130.948C153.04 130.912 153.131 130.894 153.223 130.894H185.375C185.561 130.894 185.739 130.968 185.87 131.099C186.001 131.23 186.075 131.408 186.075 131.594C186.075 131.78 186.001 131.958 185.87 132.089C185.739 132.22 185.561 132.294 185.375 132.294Z" fill="#E6E6E6"/>
<path d="M185.375 136.592H153.227C153.135 136.592 153.044 136.574 152.959 136.54C152.874 136.505 152.796 136.453 152.731 136.389C152.666 136.324 152.614 136.247 152.578 136.162C152.543 136.077 152.524 135.986 152.524 135.894C152.524 135.802 152.542 135.71 152.577 135.625C152.612 135.54 152.663 135.463 152.728 135.397C152.793 135.332 152.87 135.28 152.955 135.245C153.04 135.21 153.131 135.191 153.223 135.191H185.375C185.561 135.191 185.739 135.265 185.87 135.396C186.001 135.528 186.075 135.706 186.075 135.891C186.075 136.077 186.001 136.255 185.87 136.387C185.739 136.518 185.561 136.592 185.375 136.592Z" fill="#E6E6E6"/>
<path d="M156.973 140.889H153.227C153.042 140.888 152.864 140.814 152.734 140.683C152.603 140.552 152.53 140.374 152.53 140.189C152.53 140.004 152.603 139.826 152.734 139.695C152.864 139.564 153.042 139.489 153.227 139.489H156.973C157.158 139.489 157.336 139.564 157.466 139.695C157.597 139.826 157.67 140.004 157.67 140.189C157.67 140.374 157.597 140.552 157.466 140.683C157.336 140.814 157.158 140.888 156.973 140.889Z" fill="#E6E6E6"/>
<path d="M151.165 157.683C152.807 157.683 154.138 156.351 154.138 154.707C154.138 153.064 152.807 151.731 151.165 151.731C149.523 151.731 148.192 153.064 148.192 154.707C148.192 156.351 149.523 157.683 151.165 157.683Z" fill="#E6E6E6"/>
<path d="M154.29 161.796H153.431V194.921H182.493V194.061H154.29V161.796Z" fill="#3F3D56"/>
<path d="M214.354 194.771C214.352 193.289 213.764 191.868 212.717 190.82C211.67 189.772 210.25 189.183 208.77 189.182H186.004C184.523 189.182 183.102 189.77 182.055 190.819C181.008 191.867 180.419 193.289 180.419 194.771C180.419 196.253 181.008 197.675 182.055 198.723C183.102 199.772 184.523 200.36 186.004 200.36H208.77C210.25 200.359 211.67 199.77 212.717 198.722C213.764 197.674 214.352 196.253 214.354 194.771Z" fill="#6C63FF"/>
<path d="M153.262 164.292C156.096 164.292 158.394 161.992 158.394 159.156C158.394 156.319 156.096 154.019 153.262 154.019C150.428 154.019 148.131 156.319 148.131 159.156C148.131 161.992 150.428 164.292 153.262 164.292Z" fill="#6C63FF"/>
<path d="M108.393 85.3993H81.3888C80.1352 85.3979 78.9334 84.8987 78.047 84.0115C77.1605 83.1242 76.6619 81.9212 76.6604 80.6664V62.8522C76.6619 61.5974 77.1605 60.3944 78.047 59.5072C78.9334 58.6199 80.1352 58.1208 81.3888 58.1193H108.393C109.647 58.1208 110.848 58.6199 111.735 59.5072C112.621 60.3944 113.12 61.5974 113.121 62.8522V80.6665C113.12 81.9213 112.621 83.1242 111.735 84.0115C110.848 84.8988 109.647 85.3979 108.393 85.3993Z" fill="#E6E6E6"/>
<path d="M105.425 84.4396H81.9233C80.8323 84.4383 79.7863 84.0039 79.0149 83.2317C78.2434 82.4595 77.8094 81.4125 77.8081 80.3205V64.8164C77.8094 63.7244 78.2434 62.6774 79.0149 61.9052C79.7863 61.133 80.8323 60.6986 81.9233 60.6973H105.425C106.517 60.6986 107.562 61.133 108.334 61.9052C109.105 62.6774 109.539 63.7244 109.541 64.8164V80.3205C109.539 81.4126 109.105 82.4595 108.334 83.2317C107.562 84.0039 106.516 84.4383 105.425 84.4396Z" fill="white"/>
<path d="M112.197 101.449H77.5466C77.3322 101.449 77.1266 101.364 76.9749 101.212C76.8233 101.06 76.7381 100.854 76.7381 100.64C76.7381 100.425 76.8233 100.219 76.9749 100.067C77.1266 99.9157 77.3322 99.8304 77.5466 99.8304H112.197C112.411 99.8304 112.617 99.9157 112.768 100.067C112.92 100.219 113.005 100.425 113.005 100.64C113.005 100.854 112.92 101.06 112.768 101.212C112.617 101.364 112.411 101.449 112.197 101.449Z" fill="#E6E6E6"/>
<path d="M112.197 96.8245H77.5466C77.3322 96.8245 77.1266 96.7393 76.9749 96.5875C76.8233 96.4357 76.7381 96.2299 76.7381 96.0153C76.7381 95.8006 76.8233 95.5948 76.9749 95.443C77.1266 95.2913 77.3322 95.206 77.5466 95.206H112.197C112.411 95.206 112.617 95.2913 112.768 95.443C112.92 95.5948 113.005 95.8006 113.005 96.0153C113.005 96.2299 112.92 96.4357 112.768 96.5875C112.617 96.7393 112.411 96.8245 112.197 96.8245Z" fill="#E6E6E6"/>
<path d="M112.197 106.073H77.5466C77.3325 106.073 77.1274 105.987 76.9761 105.836C76.8249 105.684 76.74 105.478 76.74 105.264C76.74 105.05 76.8249 104.844 76.9761 104.692C77.1274 104.541 77.3325 104.455 77.5466 104.455H112.197C112.303 104.455 112.408 104.475 112.507 104.516C112.605 104.556 112.694 104.616 112.769 104.691C112.845 104.766 112.904 104.856 112.945 104.954C112.986 105.052 113.007 105.158 113.007 105.264C113.007 105.37 112.986 105.476 112.945 105.574C112.904 105.672 112.845 105.762 112.769 105.837C112.694 105.912 112.605 105.972 112.507 106.012C112.408 106.053 112.303 106.074 112.197 106.073Z" fill="#E6E6E6"/>
<path d="M112.197 110.698H77.5466C77.3325 110.697 77.1274 110.612 76.9761 110.46C76.8249 110.308 76.74 110.103 76.74 109.888C76.74 109.674 76.8249 109.469 76.9761 109.317C77.1274 109.165 77.3325 109.08 77.5466 109.079H112.197C112.303 109.079 112.408 109.1 112.507 109.14C112.605 109.181 112.694 109.24 112.769 109.316C112.845 109.391 112.904 109.48 112.945 109.578C112.986 109.677 113.007 109.782 113.007 109.888C113.007 109.995 112.986 110.1 112.945 110.199C112.904 110.297 112.845 110.386 112.769 110.461C112.694 110.536 112.605 110.596 112.507 110.637C112.408 110.677 112.303 110.698 112.197 110.698Z" fill="#E6E6E6"/>
<path d="M112.197 115.322H77.5466C77.3322 115.322 77.1266 115.237 76.9749 115.085C76.8233 114.933 76.7381 114.727 76.7381 114.513C76.7381 114.298 76.8233 114.092 76.9749 113.941C77.1266 113.789 77.3322 113.704 77.5466 113.704H112.197C112.411 113.704 112.617 113.789 112.768 113.941C112.92 114.092 113.005 114.298 113.005 114.513C113.005 114.727 112.92 114.933 112.768 115.085C112.617 115.237 112.411 115.322 112.197 115.322Z" fill="#E6E6E6"/>
<path d="M112.197 119.946H77.5466C77.3322 119.946 77.1266 119.861 76.9749 119.709C76.8233 119.558 76.7381 119.352 76.7381 119.137C76.7381 118.923 76.8233 118.717 76.9749 118.565C77.1266 118.413 77.3322 118.328 77.5466 118.328H112.197C112.411 118.328 112.617 118.413 112.768 118.565C112.92 118.717 113.005 118.923 113.005 119.137C113.005 119.352 112.92 119.558 112.768 119.709C112.617 119.861 112.411 119.946 112.197 119.946Z" fill="#E6E6E6"/>
<path d="M93.1392 109.341H93.9983V142.466H31.861V141.606H93.1392V109.341Z" fill="#3F3D56"/>
<path d="M5.58414 147.906H28.3503C29.8313 147.906 31.2516 147.317 32.2989 146.268C33.3461 145.22 33.9344 143.799 33.9344 142.316C33.9344 140.834 33.3461 139.412 32.2989 138.364C31.2516 137.316 29.8313 136.727 28.3503 136.727H5.58414C4.10314 136.727 2.68279 137.316 1.63556 138.364C0.58833 139.412 0 140.834 0 142.316C0 143.799 0.58833 145.22 1.63556 146.268C2.68279 147.317 4.10314 147.906 5.58414 147.906Z" fill="#6C63FF"/>
<path d="M94.167 111.837C97.001 111.837 99.2983 109.537 99.2983 106.701C99.2983 103.864 97.001 101.565 94.167 101.565C91.333 101.565 89.0356 103.864 89.0356 106.701C89.0356 109.537 91.333 111.837 94.167 111.837Z" fill="#6C63FF"/>
<path d="M120.69 108.128C128.223 109.731 126.307 110.044 133.841 111.646L140.328 113.026C141.139 113.199 141.362 111.928 140.55 111.755C133.016 110.153 134.932 109.84 127.399 108.237L120.911 106.857C120.1 106.685 119.878 107.955 120.69 108.128H120.69Z" fill="#F2F2F2"/>
<path d="M138.042 104.378L146.616 114.509C146.928 114.812 147.189 115.164 147.388 115.552C147.551 115.988 147.2 116.17 146.833 116.312C145.778 116.656 144.703 116.934 143.614 117.146L137.196 118.758C136.39 118.96 136.827 120.174 137.625 119.974L143.215 118.57L146.01 117.868C146.802 117.67 147.723 117.519 148.301 116.883C149.514 115.546 147.892 114.031 147.057 113.045L143.324 108.633L139.106 103.65C138.574 103.021 137.506 103.745 138.042 104.378V104.378Z" fill="#F2F2F2"/>
<path d="M282.677 167.784C289.267 167.784 294.61 162.437 294.61 155.84C294.61 149.243 289.267 143.896 282.677 143.896C276.087 143.896 270.744 149.243 270.744 155.84C270.744 162.437 276.087 167.784 282.677 167.784Z" fill="#6C63FF"/>
<path d="M281.049 162.056C280.843 162.056 280.64 162.008 280.455 161.916C280.271 161.824 280.111 161.69 279.987 161.525L276.732 157.18C276.627 157.04 276.551 156.882 276.508 156.713C276.464 156.544 276.455 156.368 276.479 156.195C276.504 156.022 276.562 155.856 276.651 155.706C276.74 155.556 276.857 155.425 276.996 155.32C277.136 155.215 277.294 155.139 277.463 155.095C277.632 155.052 277.808 155.042 277.98 155.067C278.153 155.092 278.319 155.15 278.469 155.239C278.619 155.328 278.75 155.445 278.855 155.585L278.856 155.586L280.985 158.428L286.456 150.215C286.552 150.07 286.677 149.945 286.821 149.848C286.966 149.751 287.129 149.683 287.3 149.649C287.471 149.615 287.647 149.615 287.818 149.649C287.989 149.682 288.151 149.75 288.296 149.846C288.441 149.943 288.566 150.068 288.663 150.213C288.76 150.358 288.827 150.52 288.862 150.691C288.896 150.862 288.896 151.039 288.862 151.21C288.828 151.381 288.761 151.544 288.664 151.689L282.154 161.465C282.036 161.641 281.877 161.787 281.692 161.89C281.506 161.993 281.298 162.05 281.086 162.056C281.074 162.056 281.061 162.056 281.049 162.056Z" fill="white"/>
<path d="M276.652 148.9C277.036 148.674 277.366 148.366 277.618 147.998C277.871 147.631 278.04 147.212 278.113 146.772C278.187 146.332 278.163 145.881 278.044 145.452C277.924 145.022 277.712 144.623 277.422 144.285L287.004 127.526L281.382 127.831L272.938 144.072C272.401 144.597 272.076 145.301 272.023 146.05C271.971 146.799 272.194 147.542 272.652 148.137C273.11 148.732 273.77 149.139 274.507 149.279C275.244 149.42 276.007 149.285 276.652 148.9L276.652 148.9Z" fill="#FFB8B8"/>
<path d="M265.86 90.1568C265.86 90.1568 276.008 86.8914 278.617 94.7284C281.227 102.565 290.001 123.791 290.001 123.791L280.575 143.057L276.334 138.485L280.866 125.097L267.817 105.504L265.86 90.1568Z" fill="#3F3D56"/>
<path d="M280.898 141.089C280.592 140.572 280.205 140.107 279.751 139.715L276.513 136.595L276.333 136.997C276.001 137.521 275.783 138.108 275.694 138.721C275.605 139.335 275.646 139.96 275.815 140.556C275.984 141.152 276.277 141.706 276.675 142.181C277.073 142.656 277.566 143.041 278.123 143.312C278.599 143.562 279.135 143.673 279.67 143.632C279.937 143.609 280.194 143.523 280.421 143.381C280.648 143.239 280.839 143.045 280.977 142.815C281.103 142.542 281.161 142.243 281.148 141.943C281.134 141.642 281.048 141.349 280.898 141.089Z" fill="#E6E6E6"/>
</g>
<defs>
<clipPath id="clip0_11_62">
<rect width="323" height="239" fill="white"/>
</clipPath>
</defs>
</svg>
