<svg width="295" height="21" viewBox="0 0 295 21" fill="none" xmlns="http://www.w3.org/2000/svg">
<path d="M13.5 0C14.33 0 15 0.67 15 1.5V14.5C15 15.33 14.33 16 13.5 16C12.67 16 12 15.33 12 14.5V1.5C12 0.67 12.67 0 13.5 0ZM1.5 10C2.33 10 3 10.67 3 11.5V14.5C3 15.33 2.33 16 1.5 16C0.67 16 0 15.33 0 14.5V11.5C0 10.67 0.67 10 1.5 10ZM7.5 5C8.33 5 9 5.67 9 6.5V14.5C9 15.33 8.33 16 7.5 16C6.67 16 6 15.33 6 14.5V6.5C6 5.67 6.67 5 7.5 5Z" fill="white"/>
<path d="M281 10H291V14H281V10Z" fill="white"/>
<path d="M281 8C280.47 8 279.961 8.21071 279.586 8.58579C279.211 8.96086 279 9.46957 279 10V14C279 14.5304 279.211 15.0391 279.586 15.4142C279.961 15.7893 280.47 16 281 16H291C291.53 16 292.039 15.7893 292.414 15.4142C292.789 15.0391 293 14.5304 293 14V10C293 9.46957 292.789 8.96086 292.414 8.58579C292.039 8.21071 291.53 8 291 8H281ZM291 9C291.265 9 291.52 9.10536 291.707 9.29289C291.895 9.48043 292 9.73478 292 10V14C292 14.2652 291.895 14.5196 291.707 14.7071C291.52 14.8946 291.265 15 291 15H281C280.735 15 280.48 14.8946 280.293 14.7071C280.105 14.5196 280 14.2652 280 14V10C280 9.73478 280.105 9.48043 280.293 9.29289C280.48 9.10536 280.735 9 281 9H291ZM295 12C295 12.3978 294.842 12.7794 294.561 13.0607C294.279 13.342 293.898 13.5 293.5 13.5V10.5C293.898 10.5 294.279 10.658 294.561 10.9393C294.842 11.2206 295 11.6022 295 12Z" fill="white"/>
<path d="M28.424 9.28C28.336 8.912 28.176 8.636 27.944 8.452C27.712 8.268 27.388 8.176 26.972 8.176C26.34 8.176 25.868 8.42 25.556 8.908C25.244 9.388 25.08 10.188 25.064 11.308C25.272 10.956 25.576 10.684 25.976 10.492C26.376 10.3 26.808 10.204 27.272 10.204C27.8 10.204 28.264 10.32 28.664 10.552C29.072 10.776 29.388 11.104 29.612 11.536C29.844 11.968 29.96 12.484 29.96 13.084C29.96 13.644 29.848 14.144 29.624 14.584C29.408 15.024 29.084 15.372 28.652 15.628C28.22 15.876 27.7 16 27.092 16C26.268 16 25.62 15.82 25.148 15.46C24.684 15.092 24.356 14.576 24.164 13.912C23.98 13.248 23.888 12.42 23.888 11.428C23.888 8.5 24.92 7.036 26.984 7.036C27.784 7.036 28.412 7.252 28.868 7.684C29.332 8.116 29.604 8.648 29.684 9.28H28.424ZM26.972 11.356C26.484 11.356 26.068 11.504 25.724 11.8C25.388 12.088 25.22 12.508 25.22 13.06C25.22 13.612 25.376 14.052 25.688 14.38C26.008 14.7 26.452 14.86 27.02 14.86C27.524 14.86 27.92 14.704 28.208 14.392C28.504 14.08 28.652 13.664 28.652 13.144C28.652 12.6 28.508 12.168 28.22 11.848C27.94 11.52 27.524 11.356 26.972 11.356ZM32.1512 16.084C31.9032 16.084 31.6952 16 31.5272 15.832C31.3592 15.664 31.2752 15.456 31.2752 15.208C31.2752 14.96 31.3592 14.752 31.5272 14.584C31.6952 14.416 31.9032 14.332 32.1512 14.332C32.3912 14.332 32.5952 14.416 32.7632 14.584C32.9312 14.752 33.0152 14.96 33.0152 15.208C33.0152 15.456 32.9312 15.664 32.7632 15.832C32.5952 16 32.3912 16.084 32.1512 16.084ZM32.1512 11.044C31.9032 11.044 31.6952 10.96 31.5272 10.792C31.3592 10.624 31.2752 10.416 31.2752 10.168C31.2752 9.92 31.3592 9.712 31.5272 9.544C31.6952 9.376 31.9032 9.292 32.1512 9.292C32.3912 9.292 32.5952 9.376 32.7632 9.544C32.9312 9.712 33.0152 9.92 33.0152 10.168C33.0152 10.416 32.9312 10.624 32.7632 10.792C32.5952 10.96 32.3912 11.044 32.1512 11.044ZM34.3606 11.512C34.3606 10.128 34.5926 9.048 35.0566 8.272C35.5286 7.488 36.3366 7.096 37.4806 7.096C38.6246 7.096 39.4286 7.488 39.8926 8.272C40.3646 9.048 40.6006 10.128 40.6006 11.512C40.6006 12.912 40.3646 14.008 39.8926 14.8C39.4286 15.584 38.6246 15.976 37.4806 15.976C36.3366 15.976 35.5286 15.584 35.0566 14.8C34.5926 14.008 34.3606 12.912 34.3606 11.512ZM39.2566 11.512C39.2566 10.864 39.2126 10.316 39.1246 9.868C39.0446 9.42 38.8766 9.056 38.6206 8.776C38.3646 8.488 37.9846 8.344 37.4806 8.344C36.9766 8.344 36.5966 8.488 36.3406 8.776C36.0846 9.056 35.9126 9.42 35.8246 9.868C35.7446 10.316 35.7046 10.864 35.7046 11.512C35.7046 12.184 35.7446 12.748 35.8246 13.204C35.9046 13.66 36.0726 14.028 36.3286 14.308C36.5926 14.588 36.9766 14.728 37.4806 14.728C37.9846 14.728 38.3646 14.588 38.6206 14.308C38.8846 14.028 39.0566 13.66 39.1366 13.204C39.2166 12.748 39.2566 12.184 39.2566 11.512ZM42.0481 11.512C42.0481 10.128 42.2801 9.048 42.7441 8.272C43.2161 7.488 44.0241 7.096 45.1681 7.096C46.3121 7.096 47.1161 7.488 47.5801 8.272C48.0521 9.048 48.2881 10.128 48.2881 11.512C48.2881 12.912 48.0521 14.008 47.5801 14.8C47.1161 15.584 46.3121 15.976 45.1681 15.976C44.0241 15.976 43.2161 15.584 42.7441 14.8C42.2801 14.008 42.0481 12.912 42.0481 11.512ZM46.9441 11.512C46.9441 10.864 46.9001 10.316 46.8121 9.868C46.7321 9.42 46.5641 9.056 46.3081 8.776C46.0521 8.488 45.6721 8.344 45.1681 8.344C44.6641 8.344 44.2841 8.488 44.0281 8.776C43.7721 9.056 43.6001 9.42 43.5121 9.868C43.4321 10.316 43.3921 10.864 43.3921 11.512C43.3921 12.184 43.4321 12.748 43.5121 13.204C43.5921 13.66 43.7601 14.028 44.0161 14.308C44.2801 14.588 44.6641 14.728 45.1681 14.728C45.6721 14.728 46.0521 14.588 46.3081 14.308C46.5721 14.028 46.7441 13.66 46.8241 13.204C46.9041 12.748 46.9441 12.184 46.9441 11.512Z" fill="white"/>
</svg>
